<?xml version="1.0" encoding="UTF-8" standalone="no"?>
<svg
   xmlns:dc="http://purl.org/dc/elements/1.1/"
   xmlns:cc="http://creativecommons.org/ns#"
   xmlns:rdf="http://www.w3.org/1999/02/22-rdf-syntax-ns#"
   xmlns:svg="http://www.w3.org/2000/svg"
   xmlns="http://www.w3.org/2000/svg"
   xmlns:sodipodi="http://sodipodi.sourceforge.net/DTD/sodipodi-0.dtd"
   xmlns:inkscape="http://www.inkscape.org/namespaces/inkscape"
   version="1.1"
   id="Capa_1"
   x="0px"
   y="0px"
   width="100px"
   height="100px"
   viewBox="0 0 100 100"
   enable-background="new 0 0 100 100"
   xml:space="preserve"
   inkscape:version="0.48.3.1 r9886"
   sodipodi:docname="crane.svg"><metadata
   id="metadata9"><rdf:RDF><cc:Work
       rdf:about=""><dc:format>image/svg+xml</dc:format><dc:type
         rdf:resource="http://purl.org/dc/dcmitype/StillImage" /></cc:Work></rdf:RDF></metadata><defs
   id="defs7" /><sodipodi:namedview
   pagecolor="#ffffff"
   bordercolor="#666666"
   borderopacity="1"
   objecttolerance="10"
   gridtolerance="10"
   guidetolerance="10"
   inkscape:pageopacity="0"
   inkscape:pageshadow="2"
   inkscape:window-width="1591"
   inkscape:window-height="1086"
   id="namedview5"
   showgrid="false"
   inkscape:zoom="6.675088"
   inkscape:cx="55.078375"
   inkscape:cy="59.562628"
   inkscape:window-x="72"
   inkscape:window-y="39"
   inkscape:window-maximized="0"
   inkscape:current-layer="Capa_1" />
<path
   d="m 4.525,14.486 1.807,-1.37 0.089,-0.365 28.943,7.113 43.755,4.364 0.131,-0.849 0.179,0.957 11.85,8.967 0.714,0.165 0.061,0.301 0.96,0.1 0.871,-0.158 0.836,0.393 0.195,-0.147 1.149,0.363 0.041,1.686 0.253,0.063 -0.23,0.845 0.044,1.836 -0.396,0.12 -0.002,0.011 -0.023,-0.003 -0.902,0.275 -2.155,-0.442 -0.046,-2.026 -0.01,0.003 -8.497,-1.855 -1.823,-0.21 -1.299,-0.39 0.508,58.998 H 78.782 L 78.165,34.205 74.79,33.447 75.929,33.099 21.484,20.134 l -0.71,26.247 0.204,0.008 v 1.042 l -0.634,0.53 -0.4,-0.014 -0.535,-0.581 0.062,-1.038 0.17,0.007 L 19.093,19.623 19.027,19.548 4.423,16.071 4.219,16.022 4.054,14.372 4.525,14.486 z m 0.382,0.08 0.085,0.033 0.047,0.012 0.224,-0.314 -0.356,0.269 z m -0.18,0.637 0.034,-0.054 -0.04,-0.01 0.006,0.064 z m 71.959,17.469 0.058,-0.104 -0.988,-0.239 -0.06,0.106 0.99,0.237 z m 12.34,0.436 -0.006,0.027 -1.196,-0.286 -0.006,0.48 1.246,0.129 0.205,0.013 -0.018,-0.168 -0.225,-0.195 z M 8.441,14.928 8.045,15.339 8.157,15.366 8.441,14.928 z M 7.306,15.145 7.045,14.681 7.12,15.102 7.306,15.145 z M 6.809,15.039 6.517,13.382 6.312,13.331 5.348,14.685 6.809,15.039 z m 0.897,0.217 0.009,0.002 1.231,-1.279 -2.271,-0.559 1.031,1.836 z M 8.461,15.439 9.614,15.718 9.44,14.1 9.343,14.077 8.461,15.439 z m 70.77,64.495 0.918,0.633 0.676,-0.462 -0.002,-0.255 -0.904,-0.629 -0.69,0.489 0.002,0.224 z m 1.61,1.987 -0.239,0.164 h 0.241 l -0.002,-0.164 z m -0.761,0.164 0.758,-0.519 -10e-4,-0.168 -0.688,-0.474 -0.901,0.615 v 0.017 l 0.767,0.528 h 0.065 z m -0.191,-1.34 -0.654,-0.451 0.01,0.892 0.644,-0.441 z m 0.931,-1.257 -0.007,-0.902 -0.639,0.453 0.646,0.449 z m -0.011,-1.26 -10e-4,-0.135 -0.659,-0.455 -0.935,0.638 0.001,0.098 0.702,0.488 0.892,-0.634 z m -0.036,-4.222 -0.467,0.32 0.472,0.326 -0.005,-0.646 z m 0.019,2.164 -0.108,-0.001 0.108,0.077 0,-0.076 z m -0.005,-0.589 -0.001,-0.187 -0.266,0.185 0.267,0.002 z m 0.008,1.027 -0.629,-0.442 -0.485,-0.003 -0.487,0.339 0.002,0.119 0.953,0.659 0.648,-0.444 -0.002,-0.228 z m -1.595,0.373 0.009,0.94 0.68,-0.464 -0.689,-0.476 z m 0.81,-1.406 0.772,-0.537 0,-0.026 -0.735,-0.508 -0.866,0.593 0,0.017 0.656,0.461 0.173,0 z m -0.224,-1.25 -0.618,-0.429 0.009,0.845 0.609,-0.416 z m -0.622,-0.789 0.883,0.61 0.723,-0.495 -0.002,-0.327 -0.906,-0.621 -0.701,0.495 0.003,0.338 z m 1.601,-0.571 -0.008,-0.896 -0.638,0.452 0.646,0.444 z m -0.012,-1.254 -0.001,-0.196 -0.654,-0.452 -0.952,0.65 0,0.141 0.713,0.49 0.894,-0.633 z m -1.253,-1.419 0.598,0.412 0.58,-0.397 -1.178,-0.015 z m -0.369,0.104 0.01,0.962 0.696,-0.476 -0.706,-0.486 z m 0.905,-0.981 -0.148,-0.102 -0.143,0.098 0.291,0.004 z m 0.528,0.008 0.17,0.001 -0.005,-0.689 -0.581,0.4 0.416,0.288 z m 0.161,-1.045 -10e-4,-0.135 -0.677,-0.468 -0.936,0.639 v 0.004 l 0.778,0.537 0.836,-0.577 z m -0.939,-0.782 -0.689,-0.477 0.01,0.941 0.679,-0.464 z m -0.693,-0.837 0.954,0.659 0.667,-0.456 -0.003,-0.307 -0.865,-0.587 -0.753,0.521 0,0.17 z m -0.035,-3.331 10e-4,0.092 0.884,0.61 0.741,-0.507 -10e-4,-0.177 -0.358,-0.242 -0.934,-0.006 -0.333,0.23 z m 1.629,0.551 -0.484,0.331 0.49,0.338 -0.006,-0.669 z m -0.011,-1.362 -0.003,-0.305 -0.437,0.302 0.44,0.003 z m 0.031,3.68 -0.007,-0.821 -0.596,0.413 0.603,0.408 z m -0.01,-1.178 -0.001,-0.112 -0.753,-0.52 -0.868,0.593 10e-4,0.11 0.767,0.52 0.854,-0.591 z m -1.625,-0.392 0.611,-0.419 -0.62,-0.428 0.009,0.847 z m 1.598,-2.769 -0.001,-0.189 -0.674,-0.466 -0.952,0.651 0,0.028 0.804,0.543 0.823,-0.567 z M 79.039,61.6 79.734,61.124 79.028,60.637 79.039,61.6 z m -0.013,-1.325 0.969,0.671 0.664,-0.454 -0.003,-0.321 -0.815,-0.563 -0.815,0.558 0,0.109 z m 1.625,-0.464 -0.006,-0.753 -0.544,0.372 0.55,0.381 z m -0.009,-1.109 -10e-4,-0.152 -0.698,-0.483 -0.913,0.625 0.81,0.56 0.802,-0.55 z m -0.958,-0.815 -0.688,-0.474 0.01,0.938 0.678,-0.464 z m 0.934,-2.051 -0.515,0.346 0.519,0.004 -0.004,-0.35 z m 0.008,0.938 -0.103,-10e-4 0.104,0.07 -10e-4,-0.069 z m 0.004,0.427 -0.638,-0.432 -0.76,-0.004 -0.242,0.162 0.001,0.125 0.952,0.656 0.687,-0.47 0,-0.037 z m -0.015,-1.717 v -0.052 l -0.723,-0.499 -0.917,0.626 0.002,0.168 0.634,0.428 1.004,-0.671 z m -1.642,-0.279 0.66,-0.451 -0.669,-0.461 0.009,0.912 z m -0.014,-1.272 0.934,0.644 0.665,-0.455 -1.082,-0.75 -0.52,0.342 0.003,0.219 z m 1.621,-2.572 -0.532,0.364 0.539,0.371 -0.007,-0.735 z m -0.008,-0.851 -0.066,-10e-4 0.066,0.046 0,-0.045 z m -0.005,-0.59 -0.003,-0.414 -0.607,0.409 0.61,0.005 z m 0.033,3.873 -0.01,-1.156 -0.85,0.56 0.86,0.596 z m -0.138,-1.425 -0.674,-0.465 -0.844,0.577 0.002,0.162 0.534,0.373 0.982,-0.647 z m -1.522,-0.241 0.587,-0.402 -0.596,-0.409 0.009,0.811 z m -0.012,-1.172 0.859,0.592 0.79,-0.54 -0.001,-0.09 -0.593,-0.411 -0.893,-0.006 -0.167,0.112 0.005,0.343 z m 1.633,-1.802 v -0.025 l -0.677,-0.467 -0.973,0.655 0,0.088 0.63,0.437 1.02,-0.688 z m -0.938,-0.672 -0.727,-0.502 0.01,0.983 0.717,-0.481 z m 0.262,-0.176 0.665,-0.448 -10e-4,-0.114 -0.89,-0.623 -0.753,0.507 0.979,0.678 z M 36.99,22.341 l 0.16,0.032 -0.241,-0.375 0.081,0.343 z m 0.439,-0.081 1.31,-0.959 -2.286,-0.562 0.976,1.521 z m 2.177,0.694 0.157,0.031 -0.239,-0.368 0.082,0.337 z m 0.402,-0.135 1.232,-0.904 -2.165,-0.532 0.933,1.436 z m 2.123,0.726 0.118,0.024 0.029,-0.021 -0.219,-0.348 0.072,0.345 z m 0.385,-0.171 1.172,-0.857 -2.02,-0.496 0.848,1.353 z m 1.494,-0.778 0.931,1.453 1.253,-0.917 -2.184,-0.536 z m 0.481,1.514 0.159,0.031 -0.232,-0.362 0.073,0.331 z m 2.666,0.649 0.083,-0.061 -0.146,-0.225 0.063,0.286 z m 0.321,-0.235 1.1,-0.806 -1.939,-0.476 0.839,1.282 z m 2.456,0.85 0.185,0.059 0.148,-0.409 -0.357,0.314 0.024,0.036 z m -0.533,-0.084 0.096,0.019 0.023,-0.021 -0.19,-0.282 0.071,0.284 z m 0.342,-0.198 0.968,-0.85 -1.853,-0.455 0.885,1.305 z m 2.595,0.501 -0.28,0.263 0.106,0.159 0.023,0.006 0.151,-0.428 z m -0.762,0.264 0.04,0.008 0.06,-0.055 -0.174,-0.263 0.074,0.31 z m 0.317,-0.251 0.906,-0.851 -1.751,-0.43 0.845,1.281 z m 2.373,0.873 0.186,0.06 0.147,-0.409 -0.357,0.314 0.024,0.035 z m -0.568,-0.137 0.134,0.027 -0.212,-0.304 0.078,0.277 z m 0.375,-0.141 1.006,-0.884 -1.954,-0.48 0.948,1.364 z m 2.842,0.487 -0.381,0.334 0.231,0.074 0.15,-0.408 z m -0.964,0.244 0.16,0.039 -0.25,-0.383 0.09,0.344 z m 0.397,-0.138 1.037,-0.912 -1.944,-0.478 0.907,1.39 z m 2.353,0.711 0.22,0.07 0.149,-0.408 -0.375,0.329 0.006,0.009 z m -0.498,-0.029 0.033,0.008 0.022,0.004 0.05,-0.044 -0.177,-0.267 0.072,0.299 z m 0.327,-0.227 0.965,-0.847 -1.826,-0.449 0.861,1.296 z m 2.735,0.557 -0.331,0.291 0.034,0.049 0.16,0.039 0.137,-0.379 z m -0.864,0.202 0.135,0.034 -0.214,-0.308 0.079,0.274 z m 0.364,-0.155 1.014,-0.891 -1.97,-0.484 0.956,1.375 z m 2.621,0.414 -0.295,0.28 0.096,0.135 0.053,0.013 0.146,-0.428 z m -0.771,0.264 0.053,0.01 0.035,-0.032 -0.146,-0.207 0.058,0.229 z m 0.303,-0.227 0.89,-0.843 -1.8,-0.442 0.91,1.285 z m 2.311,0.81 0.018,0.005 0.149,-0.409 -0.277,0.243 0.11,0.161 z m -0.564,-0.152 0.064,-0.057 -0.124,-0.182 0.06,0.239 z m 0.288,-0.253 0.86,-0.756 -1.657,-0.407 0.797,1.163 z m 2.241,0.865 0.17,0.054 0.149,-0.408 -0.35,0.307 0.031,0.047 z m -0.542,-0.095 0.096,0.019 0.026,-0.023 -0.19,-0.286 0.068,0.29 z m 0.345,-0.2 0.92,-0.807 -1.746,-0.429 0.826,1.236 z m 2.258,0.837 0.043,0.014 0.148,-0.409 -0.283,0.25 0.092,0.145 z m -0.566,-0.122 0.09,-0.079 -0.153,-0.244 0.063,0.323 z m 0.315,-0.275 0.872,-0.766 -1.606,-0.395 0.734,1.161 z m 2.468,0.526 -0.27,0.252 0.104,0.15 0.03,0.007 0.136,-0.409 z m -0.789,0.181 0.13,0.026 -0.193,-0.278 0.063,0.252 z m 0.35,-0.174 0.858,-0.804 -1.704,-0.419 0.846,1.223 z m 2.206,0.792 0.011,0.003 0.148,-0.409 -0.271,0.237 0.112,0.169 z m -0.564,-0.162 0.065,-0.057 -0.121,-0.184 0.056,0.241 z m 0.288,-0.253 0.817,-0.717 -1.543,-0.379 0.726,1.096 z m 2.192,0.829 0.089,0.028 0.149,-0.408 -0.313,0.274 0.075,0.106 z m -0.505,-0.119 0.037,-0.032 -0.076,-0.108 0.039,0.14 z m 0.259,-0.228 0.82,-0.72 -1.611,-0.396 0.791,1.116 z m 5.619,14.168 -0.214,-0.001 -0.264,0.18 0.483,0.333 -0.005,-0.512 z m -0.732,-0.005 h -0.014 l 0.007,0.005 0.007,-0.005 z M 79.26,45.27 78.868,45.268 78.875,45.904 79.529,45.457 79.26,45.27 z m 1.239,-3.274 -0.554,0.379 0.562,0.388 -0.008,-0.767 z m -0.026,-3.181 -0.474,0.324 0.48,0.333 -0.006,-0.657 z m -0.461,-0.042 -0.55,-0.003 0.277,0.191 0.273,-0.188 z m -1.074,-0.006 -0.138,-0.001 0.008,0.831 0.669,-0.458 -0.539,-0.372 z m 1.152,-3.016 -0.439,-0.296 -0.424,0.291 0.863,0.005 z m 0.355,-0.115 -0.005,-0.642 c -0.022,-0.011 -0.047,-0.02 -0.07,-0.031 l -0.458,0.313 0.533,0.36 z m -0.93,-3.407 -0.138,0.072 -10e-4,0.151 0.151,0.017 -0.012,-0.24 z m -0.783,-0.256 0.023,-0.012 -0.024,-0.053 0.001,0.065 z m 0.357,-0.701 0.002,-0.442 -0.182,0.047 0.18,0.395 z m 0.904,3.593 c -0.06,-0.007 -0.119,-0.013 -0.183,-0.013 -0.154,0 -0.311,0.019 -0.458,0.046 l 0.297,0.202 0.344,-0.235 z m -2.584,-2.802 0.139,0.033 -0.286,-0.271 0.147,0.238 z m 0.742,0.199 -0.042,-1.498 0.026,-0.167 -0.016,-0.033 -1.897,-0.129 1.929,1.827 z m 0.888,-3.662 -0.078,0.506 0.142,-0.035 0.003,-0.39 -0.067,-0.081 z m -0.08,1.113 -0.039,0.351 h 0.176 l 0.003,-0.384 -0.14,0.033 z m 0.429,1.042 -0.008,1.154 0.133,0.294 -0.079,-1.459 -0.046,0.011 z m 0.435,1.743 0.54,0.056 -0.364,-1.954 -0.274,0.069 0.098,1.829 z m 4.631,1.2 1.003,0.223 0.003,-0.244 -1.005,-0.104 -0.001,0.125 z m 1.297,0.287 1.664,0.369 0.008,-0.474 -1.67,-0.173 -0.002,0.278 z m -5.206,13.397 -0.007,-0.853 -0.617,0.416 0.624,0.437 z m -0.01,-1.207 v -0.023 l -0.746,-0.515 -0.878,0.6 0.751,0.526 0.873,-0.588 z m -0.77,-2.114 -0.236,-0.151 -0.22,0.147 0.456,0.004 z m 0.553,0.004 0.199,0.001 -0.007,-0.815 -0.714,0.479 0.522,0.335 z m 0.026,-1.057 -0.659,-0.454 -0.835,0.571 0.675,0.432 0.819,-0.549 z m -1.502,-0.234 0.583,-0.399 -0.592,-0.409 0.009,0.808 z m -0.012,-1.169 0.856,0.591 0.811,-0.555 0,-0.037 -1.082,-0.747 -0.588,0.406 0.003,0.342 z m 1.664,-0.361 -0.01,-1.127 -0.81,0.561 0.82,0.566 z m -0.064,-1.447 -0.692,-0.478 -0.926,0.632 0.001,0.134 0.601,0.414 1.016,-0.702 z m -0.606,-2.034 -0.411,-0.293 -0.41,0.288 0.821,0.005 z m 0.512,0.004 0.127,10e-4 -0.007,-0.907 -0.173,-10e-4 -0.614,0.432 0.667,0.475 z m -0.56,-0.911 -0.723,-0.005 0.362,0.258 0.361,-0.253 z m -1.008,-1.154 0.62,-0.423 -0.423,-0.286 c -0.074,0.022 -0.142,0.044 -0.203,0.065 l 0.006,0.644 z m -1.734,-2.944 0.218,-0.066 -0.21,-0.051 -0.057,0.103 0.05,0.012 -10e-4,0.002 z m 0.011,-0.722 -1,-1.613 -0.098,-0.006 -0.452,1.244 1.55,0.375 z m -2.688,-0.65 -0.404,-1.414 -0.44,1.209 0.844,0.205 z m -2.315,-1.901 -0.008,-10e-4 -0.411,1.241 0.755,0.183 -0.336,-1.423 z m -2.019,-0.488 -0.448,1.231 0.803,0.194 -0.355,-1.425 z m -1.645,0.941 -0.283,-1.423 -0.012,-0.003 -0.453,1.246 0.748,0.18 z M 66,28 l -0.029,-0.007 -0.455,1.253 0.826,0.2 L 66,28 z m -2.007,-0.493 -0.034,-0.008 -0.433,1.265 0.836,0.203 -0.369,-1.46 z m -2.082,-0.511 -0.035,-0.008 -0.46,1.267 0.878,0.212 -0.383,-1.471 z m -2.265,-0.55 -0.461,1.268 0.886,0.214 -0.425,-1.482 z M 57.522,25.917 57.51,25.915 57.043,27.197 57.88,27.4 57.522,25.917 z m -1.896,0.936 -0.392,-1.498 -0.035,-0.009 -0.47,1.29 0.897,0.217 z m -2.243,-0.543 -0.424,-1.515 -0.025,-0.006 -0.458,1.301 0.907,0.22 z m -2.124,-0.514 -0.363,-1.508 -0.043,-0.011 -0.475,1.305 0.881,0.214 z m -2.166,-0.525 -0.386,-1.521 -0.041,-0.01 -0.893,1.211 1.32,0.32 z m -2.244,-0.542 -0.343,-1.519 -0.197,-0.049 -0.899,1.22 1.439,0.348 z m -2.665,-0.645 -0.338,-1.528 -0.032,-0.008 -0.903,1.228 1.273,0.308 z m -2.361,-0.572 -0.318,-1.532 -0.116,-0.028 -0.91,1.235 1.344,0.325 z m -2.534,-0.613 -0.374,-1.555 -0.079,-0.02 -0.917,1.243 1.37,0.332 z m -2.619,-0.634 -0.363,-1.562 -0.118,-0.029 -0.921,1.251 1.402,0.34 z m -2.034,-0.506 0.083,-0.062 -0.169,-0.258 0.086,0.32 z m -0.323,-0.064 -0.418,-1.585 -0.131,-0.032 -0.929,1.259 1.478,0.358 z m -2.285,-0.553 0.064,0.015 0.061,-0.045 -0.201,-0.334 0.076,0.364 z m -0.316,-0.077 -0.331,-1.573 -0.053,-0.013 -0.934,1.267 1.318,0.319 z m -2.32,-0.561 0.189,0.045 -0.267,-0.457 0.078,0.412 z m -0.314,-0.076 -0.3,-1.575 -0.057,-0.014 -0.918,1.28 1.275,0.309 z m -2.055,-0.513 -0.259,-0.449 0.066,0.411 0.193,0.038 z m -0.5,-0.105 -0.258,-1.574 -0.081,-0.02 -0.924,1.289 1.263,0.305 z m -2.376,-0.61 -0.253,-0.401 0.086,0.368 0.167,0.033 z m -0.481,-0.082 -0.371,-1.613 -0.024,-0.006 -0.932,1.298 1.327,0.321 z m -3.024,-2.265 -0.938,1.307 1.466,0.354 -0.37,-1.622 -0.158,-0.039 z m -1.82,1.088 -0.309,-0.526 0.089,0.479 0.17,0.042 0.05,0.005 z m 2.66,0.618 0.178,0.053 0.017,-0.014 -0.289,-0.453 0.094,0.414 z m -3.194,-0.742 -0.302,-1.617 -0.153,-0.038 -0.93,1.319 1.385,0.336 z m -2.526,-0.611 0.194,0.046 -0.253,-0.459 0.059,0.413 z m -0.308,-0.075 -0.232,-1.609 -0.196,-0.049 -0.946,1.326 1.374,0.332 z m -1.573,-0.563 -0.182,0.138 0.071,0.017 0.111,-0.155 z m -0.796,-0.036 -0.265,-0.479 0.063,0.438 0.202,0.041 z m -0.507,-0.097 -0.241,-1.623 -0.192,-0.047 -0.949,1.334 1.382,0.336 z m -1.538,-0.627 -0.255,0.193 0.101,0.025 0.154,-0.218 z m -0.903,0.009 -0.271,-0.534 0.053,0.49 0.218,0.044 z m 0.35,0.04 1.493,-1.133 -2.367,-0.582 0.874,1.715 z m 2.94,0.685 1.46,-1.103 -2.397,-0.589 0.937,1.692 z m 2.842,0.671 1.438,-1.081 -2.351,-0.578 0.913,1.659 z m 2.865,0.679 1.413,-1.063 -2.377,-0.584 0.964,1.647 z m 2.78,0.529 1.258,-0.946 -2.21,-0.543 0.952,1.489 z m 2.663,0.907 1.512,-1.137 -2.636,-0.647 1.124,1.784 z m 2.721,0.474 1.316,-0.99 -2.194,-0.539 0.878,1.529 z m 2.579,0.668 1.377,-1.009 -2.297,-0.565 0.92,1.574 z m 2.515,0.468 1.224,-0.896 -2.068,-0.508 0.844,1.404 z m 2.565,0.586 1.177,-0.863 -2.069,-0.509 0.892,1.372 z m 40.925,8.297 2.348,0.16 0.31,-1.999 -0.042,-0.052 0.056,-0.038 0.521,-3.372 -41.68,-4.158 38.487,9.459 z m 3.781,-0.279 0.017,0.308 0.166,-0.07 -0.051,-0.269 -0.132,0.031 z m 1.064,1.75 0.175,-0.094 -0.202,-0.049 0.027,0.143 z m 0.83,0.254 -0.049,0.367 0.047,0.032 0.007,-0.591 -0.442,-0.105 0.437,0.297 z m 0.298,-0.122 -0.01,0.95 0.523,0.113 -0.086,-0.96 -0.427,-0.103 z m 2.605,1.498 0,0.058 1.006,0.104 0.009,-0.796 -0.763,-0.182 0.063,0.867 -0.315,-0.051 z m 1.308,-0.564 -0.008,0.757 1.764,0.183 0.005,-0.52 -1.761,-0.42 z m -5.215,15.853 -0.406,0.273 0.411,0.284 -0.005,-0.557 z m 0.053,6.233 -0.454,0.311 0.459,0.317 -0.005,-0.628 z m 0.027,3.152 -0.43,0.292 0.435,0.302 -0.005,-0.594 z m -0.378,3.529 0.411,0.283 -0.005,-0.562 -0.406,0.279 z m 0.052,6.473 0.415,0.285 -0.005,-0.566 -0.41,0.281 z m 0.051,3.286 0.392,0.271 -0.005,-0.535 -0.387,0.264 z m 0.051,6.575 0.396,0.274 -0.004,-0.541 -0.392,0.267 z m 0.42,3 -0.42,0.287 0.425,0.293 -0.005,-0.58 z m 0.032,3.854 -0.004,-0.541 -0.391,0.268 0.395,0.273 z m -0.655,-0.095 -0.898,0.614 0.898,0.619 L 80.868,85 80.865,84.673 80.206,84.218 z m 0.664,1.137 -0.404,0.276 0.409,0.282 -0.005,-0.558 z m -1.57,1.224 0.906,0.625 0.676,-0.462 -0.004,-0.468 -0.672,-0.464 -0.907,0.619 10e-4,0.15 z m 1.585,0.518 -0.419,0.286 0.424,0.293 -0.005,-0.579 z m -1.568,1.086 0.889,0.614 0.689,-0.472 -0.002,-0.289 -0.688,-0.476 -0.888,0.609 v 0.014 z m 1.581,0.497 -0.432,0.296 0.438,0.303 -0.006,-0.599 z m -1.233,2.436 0.918,-0.109 -0.377,-0.26 -0.541,0.369 z m 0.779,-1.044 h -0.696 l 0.346,0.239 0.35,-0.239 z m 0.022,0.496 0.451,0.311 -0.005,-0.615 -0.446,0.304 z m 0.455,0.695 -1.496,0.179 0.782,0.539 0.716,-0.489 -0.002,-0.229 z m -1.088,-0.774 -0.496,-0.342 0.007,0.677 0.489,-0.335 z m 0.849,-1.006 -0.476,-0.329 -0.482,0.329 h 0.958 z m 0.244,2.364 -0.459,0.313 0.464,0.321 -0.005,-0.634 z m -0.72,0.491 -0.441,0.304 h 0.878 l -0.437,-0.304 z m -0.26,-0.18 -0.592,-0.407 0.008,0.807 0.584,-0.4 z m -0.616,-2.762 0.616,-0.422 -0.625,-0.432 0.009,0.854 z m -0.017,-1.583 0.632,-0.432 -0.642,-0.442 0.01,0.874 z m -0.018,-1.737 0.651,-0.445 -0.66,-0.456 0.009,0.901 z m -0.016,-1.581 0.667,-0.457 -0.677,-0.467 0.01,0.924 z m 0.927,-0.635 0.647,-0.444 -0.004,-0.396 -0.5,-0.346 H 79.741 L 79.263,83 l 0.002,0.211 0.941,0.649 z m -0.952,-1.775 h 0.242 l -0.244,-0.168 0.002,0.168 z m 0.407,-3.043 -0.442,-0.308 0.007,0.617 0.435,-0.309 z m -0.476,-3.472 0.134,0.001 -0.136,-0.095 0.002,0.094 z m 0.418,-3.046 -0.453,-0.311 0.006,0.626 0.447,-0.315 z m -0.482,-3.12 0.115,0.001 0.393,-0.271 -0.514,-0.356 0.006,0.626 z m -0.033,-3.171 0.496,-0.343 -0.503,-0.342 0.007,0.685 z m -0.039,-3.626 0.395,10e-4 -0.397,-0.269 0.002,0.268 z m -0.029,-2.794 0.56,-0.384 -0.568,-0.392 0.008,0.776 z m -0.037,-3.64 0.129,10e-4 -0.13,-0.088 0.001,0.087 z m -0.03,-2.813 0.262,-0.171 -0.266,-0.185 0.004,0.356 z m -0.036,-3.451 0.208,0.002 -0.209,-0.146 0.001,0.144 z m 0.484,-2.97 -0.519,-0.363 0.007,0.708 0.512,-0.345 z m -0.546,-2.932 0.403,-0.271 -0.409,-0.262 0.006,0.533 z m 0.3,-3.329 -0.336,-0.232 0.004,0.462 0.332,-0.23 z m 0.004,-3.389 -0.376,-0.269 0.005,0.53 0.371,-0.261 z m -3.701,-5.031 -1.061,-0.257 -0.062,0.111 1.062,0.253 0.061,-0.107 z M 74.1,31.93 72.62,31.572 72.556,31.689 74.039,32.043 74.1,31.93 z m -1.778,-0.43 -1.636,-0.396 -0.068,0.124 1.64,0.391 0.064,-0.119 z m -1.933,-0.468 -1.948,-0.472 -0.073,0.132 1.953,0.464 0.068,-0.124 z m -2.246,-0.544 -1.502,-0.363 -0.077,0.137 1.505,0.358 0.074,-0.132 z m -1.799,-0.436 -1.65,-0.399 -0.08,0.145 1.652,0.393 0.078,-0.139 z m -1.948,-0.47 -1.83,-0.443 -0.084,0.152 1.834,0.437 0.08,-0.146 z m -2.127,-0.516 -1.925,-0.465 -0.088,0.159 1.928,0.459 0.085,-0.153 z m -2.222,-0.537 -1.851,-0.449 -0.095,0.167 1.856,0.442 0.09,-0.16 z m -2.149,-0.521 -2.12,-0.513 -0.097,0.175 2.121,0.505 0.096,-0.167 z m -2.417,-0.585 -1.958,-0.473 -0.105,0.182 1.965,0.468 0.098,-0.177 z m -2.256,-0.545 -1.896,-0.459 -0.109,0.189 1.899,0.452 0.106,-0.182 z m -2.195,-0.531 -1.945,-0.471 -0.114,0.196 1.948,0.464 0.111,-0.189 z m -2.243,-0.543 -1.943,-0.47 -0.101,0.208 1.928,0.459 0.116,-0.197 z m -2.235,-0.541 -2.406,-0.582 -0.125,0.213 2.428,0.578 0.103,-0.209 z m -2.705,-0.655 -1.982,-0.479 -0.129,0.221 1.986,0.474 0.125,-0.216 z m -2.283,-0.552 -2.124,-0.514 -0.137,0.229 2.131,0.508 0.13,-0.223 z m -2.423,-0.587 -2.461,-0.595 -0.112,0.245 2.435,0.579 0.138,-0.229 z m -2.753,-0.666 -2.067,-0.5 -0.119,0.252 2.075,0.494 0.111,-0.246 z m -2.361,-0.571 -2.303,-0.557 -0.152,0.255 2.336,0.556 0.119,-0.254 z m -2.601,-0.63 -2.229,-0.539 -0.129,0.271 2.204,0.525 0.154,-0.257 z m -2.522,-0.61 -2.336,-0.565 -0.136,0.279 2.343,0.558 0.129,-0.272 z m -2.63,-0.637 -2.531,-0.613 -0.168,0.282 2.563,0.61 0.136,-0.279 z m -2.832,-0.685 -1.417,-0.343 -0.176,0.287 1.426,0.339 0.167,-0.283 z m -4.886,-1.183 -0.171,-0.041 -0.175,0.301 0.363,0.086 -0.017,-0.346 z m -0.469,-0.113 -2.502,-0.605 -0.19,0.308 2.515,0.6 0.177,-0.303 z m -2.804,-0.679 -2.611,-0.632 -0.176,0.324 2.597,0.618 0.19,-0.31 z m -2.909,-0.703 -2.688,-0.65 -0.185,0.332 2.696,0.642 0.177,-0.324 z M 9.39,16.27 6.859,15.658 6.702,16.008 9.203,16.604 9.39,16.27 z M 6.567,15.586 5.064,15.223 4.847,15.565 6.409,15.937 6.567,15.586 z m 73.785,13.695 0.064,0.079 -0.048,0.012 0.273,1.46 7.951,1.898 -9.075,-7.914 0.835,4.465 z m 2.197,-2.213 6.917,6.032 0.759,-0.037 0.354,0.082 -8.03,-6.077 z m -62.073,19.3 0.713,-26.305 -0.308,-0.074 -0.03,0 -10e-4,-0.006 -0.925,-0.221 v 0.021 l -0.539,-0.054 0.548,26.618 0.542,0.021 z"
   id="path3"
   fill="#FAFAFA"
   inkscape:connector-curvature="0" />
</svg>
