<?xml version="1.0" encoding="UTF-8" standalone="no"?>
<svg
   xmlns:dc="http://purl.org/dc/elements/1.1/"
   xmlns:cc="http://creativecommons.org/ns#"
   xmlns:rdf="http://www.w3.org/1999/02/22-rdf-syntax-ns#"
   xmlns:svg="http://www.w3.org/2000/svg"
   xmlns="http://www.w3.org/2000/svg"
   xmlns:sodipodi="http://sodipodi.sourceforge.net/DTD/sodipodi-0.dtd"
   xmlns:inkscape="http://www.inkscape.org/namespaces/inkscape"
   version="1.1"
   id="レイヤー_1"
   x="0px"
   y="0px"
   width="168.00058"
   height="90.000137"
   viewBox="0 0 476.22116 255.11799"
   enable-background="new 0 0 283.464 283.464"
   xml:space="preserve"
   inkscape:version="0.48.3.1 r9886"
   sodipodi:docname="icon_49268.svg"><metadata
   id="metadata3074"><rdf:RDF><cc:Work
       rdf:about=""><dc:format>image/svg+xml</dc:format><dc:type
         rdf:resource="http://purl.org/dc/dcmitype/StillImage" /><dc:title></dc:title></cc:Work></rdf:RDF></metadata><defs
   id="defs3072" /><sodipodi:namedview
   pagecolor="#ffffff"
   bordercolor="#666666"
   borderopacity="1"
   objecttolerance="10"
   gridtolerance="10"
   guidetolerance="10"
   inkscape:pageopacity="0"
   inkscape:pageshadow="2"
   inkscape:window-width="1630"
   inkscape:window-height="1031"
   id="namedview3070"
   showgrid="false"
   fit-margin-top="0"
   fit-margin-left="0"
   fit-margin-right="0"
   fit-margin-bottom="0"
   inkscape:zoom="6.19"
   inkscape:cx="87.97119"
   inkscape:cy="44.999718"
   inkscape:window-x="246"
   inkscape:window-y="47"
   inkscape:window-maximized="0"
   inkscape:current-layer="レイヤー_1" />
<path
   d="m 309.17918,213.552 c -0.075,-0.191 -0.16,-0.382 -0.271,-0.563 -1.733,-2.834 -3.389,-5.708 -4.98,-8.613 11.007,-8.557 17.032,-40.434 13.772,-77.689 -2.132,-24.371 -7.78,-45.782 -14.88,-59.507 l 173.4,74.553 -212.599,-106.3 c -19.569,0 -35.433,-15.864 -35.433,-35.433 -3.398,19.271 16.556,47.098 35.829,50.496 l 12.573,5.406 c -0.085,0.198 -0.158,0.403 -0.207,0.62 -6.682,29.665 -7.006,59.942 -0.965,89.991 4.964,24.692 14.04,48.024 26.967,69.372 -14.012,5.43 -27.07,25.174 -24.59,39.233 0,-15.655 12.691,-28.347 28.346,-28.347 l 170.08,-85.039 -167.042,71.82 z m -21.353,-45.778 -0.483,-0.706 c -3.517,-7.831 -6.22,-16.177 -7.983,-24.95 -3.342,-16.628 -2.979,-33.141 0.521,-48.684 l 1.151,-3.317 c 7.148,-0.626 14.464,16.25 16.34,37.694 1.876,21.447 -2.398,39.338 -9.546,39.963 z"
   id="path3068"
   inkscape:connector-curvature="0"
   style="fill:#000000" />
<g
   transform="matrix(-1.5221042,1.2570278,1.2570278,1.5221042,132.45183,-20.216887)"
   id="g3162"><polygon
     points="7.425,89.916 32.497,78.174 35.081,75.59 28.431,68.94 "
     id="polygon3164" /><polygon
     style="fill:#000000"
     points="0,97.327 26.129,84.543 29.913,80.758 4.845,92.495 "
     id="polygon3166" /><path
     style="fill:#000000"
     inkscape:connector-curvature="0"
     d="m 96.393,13.916 c 0.649,-0.803 0.604,-1.978 -0.142,-2.722 L 92.687,7.628 C 91.944,6.885 90.766,6.836 89.965,7.487 L 89.927,7.449 30.345,67.03 l 6.648,6.647 59.581,-59.581 -0.181,-0.18 z"
     id="path3168" /></g></svg>